<?xml version="1.0" encoding="utf-8"?>
<!-- Generator: Adobe Illustrator 18.0.0, SVG Export Plug-In . SVG Version: 6.00 Build 0)  -->
<!DOCTYPE svg PUBLIC "-//W3C//DTD SVG 1.1//EN" "http://www.w3.org/Graphics/SVG/1.1/DTD/svg11.dtd">
<svg version="1.1" id="svg3228" xmlns:svg="http://www.w3.org/2000/svg"
	 xmlns="http://www.w3.org/2000/svg" xmlns:xlink="http://www.w3.org/1999/xlink" x="0px" y="0px" width="1024px" height="247px"
	 viewBox="0 0 1024 247" enable-background="new 0 0 1024 247" xml:space="preserve">
<g id="g2866" transform="matrix(1.25,0,0,-1.25,-735.35,72.15625)">
	<g>
		<defs>
			<rect id="SVGID_1_" x="283.14" y="-220.78" width="1339.16" height="409.6"/>
		</defs>
		<clipPath id="SVGID_2_">
			<use xlink:href="#SVGID_1_"  overflow="visible"/>
		</clipPath>
		<g id="g2868" clip-path="url(#SVGID_2_)">
			<g id="g2874" transform="translate(718.5082,33.5419)">
				<path id="path2876" fill="#827F80" d="M475.82-91.85c0-9.9,0.36-10.18,9.34-10.18h29.95c1.27,0,2.33-1.06,2.33-2.35v-7.56
					c0-1.66-0.58-2.26-2.33-2.48c-3.81-0.6-11.51-1.65-25.56-1.65c-19.67,0-30.06-0.13-30.06,24.23v37.41
					c0,24.37,10.39,24.24,30.06,24.24c14.05,0,21.74-1.07,25.56-1.65c1.75-0.24,2.33-0.83,2.33-2.49v-7.55
					c0-1.3-1.07-2.38-2.33-2.38h-29.95c-8.98,0-9.34-0.26-9.34-10.16v-10.83h37.84c1.32,0,2.35-1.08,2.35-2.36v-8.53
					c0-1.29-1.03-2.36-2.35-2.36h-37.84V-91.85z M650.67-116.13c-10.45,0-21.04,1.79-26.72,3.1c-1.16,0.24-2.24,1.06-2.24,2.36v8.51
					c0,1.3,1.08,2.25,2.24,2.25h0.24c4.73-0.59,15.81-2.13,26.74-2.13c10.51,0,13.72,3.76,13.72,10.62
					c0,8.87-21.16,13.78-31.5,18.03c-10.27,4.26-13.93,12.4-13.93,20.68c0,13.01,10.48,22.47,32.45,22.47
					c11.27,0,21.6-2.14,25.61-3.12c1.19-0.24,2.11-1.06,2.11-2.23v-8.75c0-1.17-0.8-2.12-2-2.12h-0.23
					c-7.8,0.7-15.9,2.13-26.17,2.13c-8.77,0-15.33-3.06-15.33-8.38c0-3.89,4.45-7.48,9.7-9.55c5.25-2.06,12.14-4.75,20.01-7.92
					c9.94-4.03,16.41-9.9,16.41-21.23C681.77-103.36,674.33-116.13,650.67-116.13 M587.81-56.94c0,8.87-6.87,12.65-18.72,12.65
					c-2.47,0-13.22-0.24-15.36-0.46v-25.64c1.91-0.12,13.38-0.36,15.36-0.36c12.19,0,18.72,2.35,18.72,12.75V-56.94z M605.55-115.14
					h-14.45c-1.29,0-1.76,1.19-2.35,2.37l-17.04,28.66h-2.64c-3.06,0-12.61,0.34-15.36,0.48v-29.14c0-1.3-0.93-2.37-2.23-2.37
					h-11.81c-1.31,0-2.37,1.07-2.37,2.37v77.48c0,2.38,1.4,3.2,3.77,3.56c6.15,0.94,19.39,1.53,27.99,1.53
					c18.23,0,35.03-6.51,35.03-26.73V-58c0-12.52-6.28-19.38-15.96-23.14l18.58-31.64c0.24-0.36,0.24-0.69,0.24-0.96
					C606.97-114.54,606.49-115.14,605.55-115.14 M444.99-44.86H421.4v-67.92c0-1.3-1.09-2.37-2.4-2.37h-11.69
					c-1.31,0-2.37,1.07-2.37,2.37v67.92h-23.61c-1.28,0-2.35,0.8-2.35,2.11v9.34c0,1.31,1.07,2.25,2.35,2.25h63.66
					c1.28,0,2.35-0.94,2.35-2.25v-9.34C447.34-44.06,446.27-44.86,444.99-44.86 M331.8-116.08c-19.01,0-35.41,8.27-35.41,33.48
					v49.19c0,1.31,1.08,2.25,2.38,2.25h11.68c1.32,0,2.37-0.94,2.37-2.25V-82.6c0-13.49,6.23-19.88,18.98-19.88
					c12.79,0,19,6.39,19,19.88v49.19c0,1.31,1.07,2.25,2.36,2.25h11.7c1.32,0,2.38-0.94,2.38-2.25V-82.6
					C367.25-107.81,350.85-116.08,331.8-116.08 M237.1-91.85c0-9.9,0.38-10.18,9.32-10.18h29.93c1.31,0,2.37-1.06,2.37-2.35v-7.56
					c0-1.66-0.6-2.26-2.37-2.48c-3.78-0.6-11.49-1.65-25.55-1.65c-19.62,0-30.03-0.13-30.03,24.23v37.41
					c0,24.37,10.41,24.24,30.03,24.24c14.06,0,21.76-1.07,25.55-1.65c1.78-0.24,2.37-0.83,2.37-2.49v-7.55
					c0-1.3-1.07-2.38-2.37-2.38h-29.93c-8.94,0-9.32-0.26-9.32-10.16v-10.83h37.84c1.3,0,2.37-1.08,2.37-2.36v-8.53
					c0-1.29-1.07-2.36-2.37-2.36H237.1V-91.85z M186.42-56.94c0,8.87-6.88,12.65-18.7,12.65c-2.5,0-13.26-0.24-15.37-0.46v-25.64
					c1.87-0.12,13.33-0.36,15.37-0.36c12.16,0,18.7,2.35,18.7,12.75V-56.94z M204.16-115.14h-14.44c-1.29,0-1.77,1.19-2.35,2.37
					l-17.04,28.66h-2.6c-3.09,0-12.65,0.34-15.37,0.48v-29.14c0-1.3-0.96-2.37-2.26-2.37h-11.82c-1.29,0-2.35,1.07-2.35,2.37v77.48
					c0,2.38,1.4,3.2,3.78,3.56c6.16,0.94,19.38,1.53,28.02,1.53c18.2,0,35.02-6.51,35.02-26.73V-58c0-12.52-6.27-19.38-15.96-23.14
					l18.55-31.64c0.24-0.36,0.24-0.69,0.24-0.96C205.57-114.54,205.1-115.14,204.16-115.14"/>
			</g>
		</g>
	</g>
</g>
<g id="g2878" transform="matrix(1.25,0,0,-1.25,-735.35,72.15625)">
	<g id="g2880">
		<g id="g2886">
			<g id="g2888">
				
					<linearGradient id="path2898_1_" gradientUnits="userSpaceOnUse" x1="762.9017" y1="-379.8459" x2="763.9017" y2="-379.8459" gradientTransform="matrix(-67.7687 -36.583 -36.583 67.7687 38524.3164 53625.7109)">
					<stop  offset="0" style="stop-color:#F79210"/>
					<stop  offset="0.5" style="stop-color:#F35C19"/>
					<stop  offset="1" style="stop-color:#F79210"/>
				</linearGradient>
				<path id="path2898" fill="url(#path2898_1_)" d="M685.43-8.38c-1.67-0.9-2.26-2.99-1.39-4.64l0,0c0.89-1.69,3-2.29,4.67-1.41
					l0,0c1.66,0.91,2.27,2.99,1.38,4.67l0,0c-0.61,1.14-1.79,1.81-3.02,1.81l0,0C686.51-7.96,685.95-8.1,685.43-8.38 M694.66-8.53
					c-1.5-0.79-2.02-2.64-1.23-4.13l0,0c0.78-1.48,2.63-2.04,4.11-1.22l0,0c1.51,0.81,2.04,2.65,1.25,4.13l0,0
					c-0.54,1.02-1.58,1.6-2.66,1.6l0,0C695.63-8.14,695.13-8.27,694.66-8.53 M676.67-10.99c-1.88-1.02-2.6-3.38-1.57-5.26l0,0
					c1.02-1.89,3.37-2.62,5.29-1.59l0,0c1.89,1.02,2.58,3.38,1.57,5.26l0,0c-0.7,1.32-2.04,2.06-3.43,2.06l0,0
					C677.9-10.52,677.26-10.67,676.67-10.99 M703.52-11.41c-1.3-0.72-1.8-2.37-1.1-3.65l0,0c0.7-1.3,2.35-1.77,3.61-1.06l0,0
					c1.33,0.7,1.81,2.32,1.09,3.61l0,0c-0.48,0.9-1.41,1.41-2.36,1.41l0,0C704.33-11.11,703.91-11.2,703.52-11.41 M669.72-16.86
					c-1.69-0.93-2.32-2.97-1.4-4.68l0,0c0.9-1.65,2.96-2.28,4.63-1.38l0,0c1.7,0.9,2.32,3,1.42,4.65l0,0
					c-0.62,1.15-1.81,1.82-3.04,1.82l0,0C670.78-16.44,670.23-16.58,669.72-16.86 M711.14-16.9c-1.14-0.62-1.55-2-0.96-3.11l0,0
					c0.6-1.11,1.98-1.51,3.13-0.95l0,0c1.1,0.63,1.54,2.02,0.93,3.14l0,0c-0.42,0.76-1.21,1.21-2.02,1.21l0,0
					C711.86-16.62,711.48-16.71,711.14-16.9 M716.77-24.41c-0.89-0.52-1.26-1.7-0.74-2.61l0,0c0.49-0.93,1.65-1.26,2.56-0.77l0,0
					c0.93,0.5,1.28,1.64,0.78,2.57l0,0c-0.36,0.66-1.02,1.02-1.7,1.02l0,0C717.36-24.2,717.06-24.26,716.77-24.41 M664.77-24.65
					c-1.49-0.8-2.03-2.66-1.26-4.14l0,0c0.82-1.47,2.67-2.04,4.14-1.24l0,0c1.49,0.79,2.06,2.65,1.25,4.15l0,0
					c-0.56,1.01-1.62,1.59-2.7,1.59l0,0C665.72-24.29,665.23-24.41,664.77-24.65 M719.63-32.62c-1.13-0.59-1.55-2-0.93-3.11l0,0
					c0.58-1.11,1.99-1.52,3.07-0.95l0,0c1.13,0.65,1.56,2.05,0.97,3.14l0,0c-0.42,0.77-1.21,1.2-2.02,1.2l0,0
					C720.34-32.34,719.98-32.44,719.63-32.62 M662.34-33.67c-1.28-0.69-1.75-2.31-1.07-3.6l0,0c0.72-1.32,2.33-1.79,3.63-1.09l0,0
					c1.29,0.71,1.78,2.35,1.08,3.62l0,0c-0.48,0.89-1.4,1.4-2.35,1.4l0,0C663.2-33.33,662.75-33.43,662.34-33.67 M719.65-41.33
					c-1.31-0.72-1.77-2.32-1.1-3.64l0,0c0.69-1.27,2.36-1.75,3.65-1.06l0,0c1.29,0.71,1.76,2.33,1.06,3.62l0,0
					c-0.48,0.9-1.39,1.4-2.34,1.4l0,0C720.49-41.01,720.06-41.11,719.65-41.33 M662.73-43.02c-1.1-0.61-1.52-2.01-0.91-3.12l0,0
					c0.6-1.13,2-1.52,3.09-0.9l0,0c1.12,0.57,1.57,1.99,0.94,3.09l0,0c-0.43,0.76-1.21,1.2-2.03,1.2l0,0
					C663.45-42.75,663.07-42.84,662.73-43.02 M716.88-49.65c-1.49-0.78-2.04-2.68-1.25-4.16l0,0c0.82-1.47,2.66-2.03,4.12-1.23l0,0
					c1.52,0.82,2.05,2.65,1.27,4.15l0,0c-0.55,1.02-1.6,1.61-2.69,1.61l0,0C717.84-49.28,717.34-49.4,716.88-49.65 M665.93-51.89
					c-0.94-0.49-1.27-1.65-0.77-2.61l0,0c0.5-0.91,1.64-1.26,2.59-0.77l0,0c0.92,0.52,1.27,1.68,0.76,2.61l0,0
					c-0.35,0.63-1.02,1-1.7,1l0,0C666.51-51.67,666.21-51.74,665.93-51.89 M711.56-56.76c-1.68-0.9-2.29-3-1.39-4.65l0,0
					c0.89-1.67,2.97-2.29,4.66-1.38l0,0c1.67,0.87,2.28,2.98,1.38,4.64l0,0c-0.63,1.15-1.81,1.81-3.03,1.81l0,0
					C712.63-56.34,712.08-56.48,711.56-56.76 M671.23-58.75c-1.11-0.58-1.53-1.99-0.93-3.09l0,0c0.59-1.12,1.98-1.53,3.09-0.91l0,0
					c1.1,0.57,1.52,1.96,0.93,3.08l0,0c-0.41,0.76-1.2,1.18-2.01,1.18l0,0C671.95-58.48,671.58-58.57,671.23-58.75 M704.13-61.86
					c-1.88-1.01-2.61-3.37-1.56-5.27l0,0c1.02-1.88,3.39-2.58,5.29-1.58l0,0c1.88,1.04,2.59,3.41,1.57,5.26l0,0
					c-0.71,1.31-2.05,2.07-3.44,2.07l0,0C705.36-61.37,704.72-61.52,704.13-61.86 M678.5-63.55c-1.33-0.72-1.8-2.32-1.08-3.62l0,0
					c0.67-1.3,2.31-1.8,3.61-1.1l0,0c1.3,0.73,1.79,2.37,1.08,3.65l0,0c-0.49,0.88-1.42,1.39-2.36,1.39l0,0
					C679.33-63.22,678.9-63.32,678.5-63.55 M695.82-65.26c-1.68-0.89-2.26-2.97-1.35-4.66l0,0c0.87-1.66,2.95-2.31,4.63-1.38l0,0
					c1.68,0.88,2.28,2.98,1.39,4.64l0,0c-0.63,1.15-1.81,1.8-3.03,1.8l0,0C696.9-64.85,696.34-64.98,695.82-65.26 M686.96-65.79
					c-1.48-0.8-2.01-2.67-1.23-4.14l0,0c0.82-1.49,2.66-2.05,4.15-1.25l0,0c1.5,0.78,2.05,2.65,1.24,4.15l0,0
					c-0.54,1.02-1.6,1.59-2.7,1.59l0,0C687.93-65.44,687.42-65.55,686.96-65.79"/>
			</g>
		</g>
	</g>
</g>
<g id="g2900" transform="matrix(1.25,0,0,-1.25,-735.35,72.15625)">
	<g id="g2902">
		<g id="g2908">
			<g id="g2910">
				
					<linearGradient id="path2920_1_" gradientUnits="userSpaceOnUse" x1="760.4183" y1="-380.8506" x2="761.4183" y2="-380.8506" gradientTransform="matrix(-99.5 29.2226 29.2226 99.5 87523.1719 15621.6592)">
					<stop  offset="0" style="stop-color:#F79210"/>
					<stop  offset="0.5" style="stop-color:#F35C19"/>
					<stop  offset="1" style="stop-color:#F79210"/>
				</linearGradient>
				<path id="path2920" fill="url(#path2920_1_)" d="M686.94,1c-0.68-2.31,0.63-4.72,2.95-5.42l0,0c2.31-0.68,4.72,0.66,5.42,2.95
					l0,0c0.69,2.31-0.63,4.75-2.94,5.43l0,0c-0.42,0.12-0.84,0.18-1.25,0.18l0,0C689.23,4.13,687.51,2.89,686.94,1 M698.63-0.41
					c-0.78-2.67,0.7-5.43,3.39-6.22l0,0c2.65-0.79,5.43,0.72,6.21,3.37l0,0c0.8,2.68-0.72,5.48-3.39,6.26l0,0
					c-0.47,0.14-0.94,0.2-1.41,0.2l0,0C701.26,3.19,699.27,1.77,698.63-0.41 M675.21-1.43c-0.6-2.06,0.59-4.21,2.65-4.82l0,0
					c2.04-0.6,4.21,0.56,4.81,2.63l0,0c0.58,2.04-0.6,4.2-2.63,4.81l0,0c-0.36,0.11-0.72,0.15-1.08,0.15l0,0
					C677.27,1.35,675.72,0.25,675.21-1.43 M710.46-5.93c-0.68-2.3,0.65-4.73,2.96-5.41l0,0c2.31-0.68,4.74,0.66,5.42,2.97l0,0
					c0.69,2.3-0.63,4.73-2.95,5.42l0,0c-0.41,0.12-0.83,0.18-1.23,0.18l0,0C712.77-2.77,711.03-4.02,710.46-5.93 M665.13-7.62
					c-0.48-1.63,0.44-3.31,2.07-3.8l0,0c1.62-0.47,3.32,0.47,3.79,2.08l0,0c0.47,1.61-0.46,3.31-2.07,3.79l0,0
					c-0.29,0.08-0.58,0.12-0.86,0.12l0,0C666.73-5.42,665.52-6.29,665.13-7.62 M719.93-14.56c-0.61-2.08,0.58-4.22,2.62-4.82l0,0
					c2.06-0.6,4.2,0.59,4.82,2.65l0,0c0.61,2.04-0.56,4.19-2.63,4.79l0,0c-0.36,0.11-0.73,0.16-1.09,0.16l0,0
					C721.99-11.79,720.45-12.88,719.93-14.56 M657.15-16.79c-0.39-1.3,0.37-2.68,1.68-3.05l0,0c1.31-0.38,2.67,0.36,3.07,1.66l0,0
					c0.41,1.3-0.37,2.67-1.67,3.07l0,0c-0.23,0.06-0.45,0.09-0.67,0.09l0,0C658.47-15.01,657.47-15.69,657.15-16.79 M726.67-25.68
					c-0.49-1.65,0.47-3.34,2.07-3.8l0,0c1.63-0.48,3.32,0.45,3.79,2.07l0,0c0.48,1.62-0.44,3.32-2.06,3.78l0,0
					c-0.29,0.09-0.59,0.13-0.88,0.13l0,0C728.27-23.5,727.05-24.37,726.67-25.68 M652.46-28.17c-0.29-0.99,0.25-2.03,1.23-2.32l0,0
					c0.99-0.29,2.01,0.29,2.3,1.27l0,0c0.29,0.97-0.27,2-1.26,2.29l0,0c-0.18,0.05-0.35,0.07-0.52,0.07l0,0
					C653.42-26.85,652.69-27.37,652.46-28.17 M729.53-38.05c-0.4-1.29,0.35-2.69,1.68-3.06l0,0c1.31-0.39,2.67,0.36,3.07,1.68l0,0
					c0.38,1.29-0.35,2.67-1.68,3.06l0,0c-0.23,0.06-0.46,0.1-0.69,0.1l0,0C730.83-36.26,729.83-36.97,729.53-38.05 M650.24-40.29
					c-0.39-1.31,0.38-2.67,1.69-3.06l0,0c1.31-0.39,2.67,0.35,3.07,1.67l0,0c0.39,1.3-0.36,2.68-1.67,3.07l0,0
					c-0.23,0.06-0.46,0.1-0.69,0.1l0,0C651.57-38.51,650.58-39.22,650.24-40.29 M728.52-50.52c-0.27-0.97,0.28-2.01,1.24-2.29l0,0
					c1-0.29,2.01,0.26,2.29,1.26l0,0c0.3,0.96-0.25,2-1.25,2.29l0,0c-0.17,0.05-0.33,0.07-0.5,0.07l0,0
					C729.51-49.19,728.76-49.72,728.52-50.52 M652.01-52.33c-0.46-1.61,0.42-3.32,2.06-3.79l0,0c1.61-0.49,3.31,0.46,3.78,2.08l0,0
					c0.48,1.62-0.45,3.32-2.06,3.76l0,0c-0.3,0.09-0.6,0.13-0.9,0.13l0,0C653.58-50.14,652.38-51.01,652.01-52.33 M722.62-61.55
					c-0.37-1.32,0.37-2.7,1.66-3.07l0,0c1.33-0.39,2.71,0.36,3.09,1.67l0,0c0.37,1.29-0.37,2.69-1.68,3.08l0,0
					c-0.23,0.06-0.46,0.1-0.69,0.1l0,0C723.94-59.77,722.95-60.47,722.62-61.55 M657.14-62.98c-0.61-2.05,0.56-4.2,2.62-4.82l0,0
					c2.08-0.61,4.21,0.57,4.83,2.62l0,0c0.6,2.05-0.6,4.23-2.65,4.84l0,0c-0.37,0.11-0.73,0.16-1.09,0.16l0,0
					C659.18-60.18,657.65-61.28,657.14-62.98 M713.53-70.39c-0.46-1.61,0.48-3.31,2.09-3.79l0,0c1.61-0.48,3.31,0.45,3.77,2.05l0,0
					c0.49,1.63-0.43,3.33-2.05,3.8l0,0c-0.29,0.09-0.59,0.13-0.88,0.13l0,0C715.14-68.2,713.93-69.08,713.53-70.39 M665.7-71.38
					c-0.67-2.29,0.62-4.71,2.95-5.4l0,0c2.33-0.67,4.74,0.66,5.43,2.95l0,0c0.67,2.29-0.65,4.74-2.97,5.42l0,0
					c-0.42,0.12-0.83,0.18-1.23,0.18l0,0C667.98-68.23,666.26-69.47,665.7-71.38 M676.28-76.48c-0.77-2.68,0.72-5.45,3.4-6.24l0,0
					c2.65-0.76,5.46,0.77,6.21,3.4l0,0c0.78,2.67-0.72,5.46-3.4,6.24l0,0c-0.47,0.13-0.94,0.2-1.41,0.2l0,0
					C678.91-72.88,676.91-74.3,676.28-76.48 M701.85-76.11c-0.6-2.06,0.59-4.22,2.63-4.82l0,0c2.07-0.6,4.22,0.56,4.82,2.63l0,0
					c0.6,2.04-0.56,4.2-2.63,4.8l0,0c-0.37,0.12-0.74,0.17-1.1,0.17l0,0C703.89-73.33,702.34-74.43,701.85-76.11 M689.2-78.28
					c-0.67-2.29,0.66-4.7,2.96-5.39l0,0c2.32-0.7,4.75,0.63,5.41,2.93l0,0c0.66,2.32-0.63,4.75-2.95,5.42l0,0
					c-0.42,0.12-0.83,0.18-1.24,0.18l0,0C691.5-75.14,689.76-76.37,689.2-78.28"/>
			</g>
		</g>
	</g>
</g>
<g id="g2922" transform="matrix(1.25,0,0,-1.25,-735.35,72.15625)">
	<g id="g2924">
		<g id="g2930">
			<g id="g2932">
				
					<linearGradient id="path2942_1_" gradientUnits="userSpaceOnUse" x1="759.1396" y1="-380.2825" x2="760.1396" y2="-380.2825" gradientTransform="matrix(-97.542 97.542 97.542 97.542 111872.8125 -37033.3516)">
					<stop  offset="0" style="stop-color:#F79210"/>
					<stop  offset="0.5" style="stop-color:#F35C19"/>
					<stop  offset="1" style="stop-color:#F79210"/>
				</linearGradient>
				<path id="path2942" fill="url(#path2942_1_)" d="M695.33,15.97c-1.88-2-1.79-5.15,0.22-7.03l0,0c2-1.89,5.15-1.8,7.02,0.2l0,0
					c1.89,2.01,1.78,5.14-0.21,7.04l0,0c-0.96,0.9-2.18,1.34-3.4,1.34l0,0C697.64,17.52,696.31,17,695.33,15.97 M679.58,14.75
					c-1.48-1.58-1.41-4.05,0.17-5.55l0,0c1.57-1.47,4.05-1.39,5.54,0.18l0,0c1.47,1.57,1.4,4.06-0.17,5.54l0,0
					c-0.76,0.71-1.72,1.06-2.68,1.06l0,0C681.39,15.97,680.35,15.56,679.58,14.75 M710.76,11.77c-2.12-2.24-2.03-5.77,0.22-7.9l0,0
					c2.24-2.12,5.81-2.01,7.91,0.22l0,0c2.11,2.25,2.02,5.8-0.23,7.91l0,0c-1.09,1.02-2.47,1.53-3.85,1.53l0,0
					C713.34,13.54,711.86,12.94,710.76,11.77 M664.55,8.67c-1.2-1.27-1.14-3.26,0.13-4.48l0,0c1.28-1.19,3.29-1.14,4.49,0.14l0,0
					c1.2,1.27,1.14,3.28-0.13,4.47l0,0c-0.62,0.57-1.4,0.86-2.18,0.86l0,0C666.01,9.66,665.18,9.33,664.55,8.67 M723.82,3.02
					c-2.45-2.58-2.35-6.63,0.25-9.08l0,0c2.58-2.46,6.66-2.32,9.09,0.24l0,0c2.44,2.61,2.32,6.68-0.26,9.12l0,0
					c-1.25,1.17-2.83,1.75-4.4,1.75l0,0C726.79,5.05,725.08,4.37,723.82,3.02 M652.07-2.01c-0.9-0.96-0.86-2.44,0.09-3.34l0,0
					c0.97-0.91,2.46-0.86,3.34,0.09l0,0c0.9,0.96,0.85,2.45-0.09,3.35l0,0c-0.47,0.42-1.06,0.63-1.64,0.63l0,0
					C653.15-1.27,652.53-1.52,652.07-2.01 M734.54-10.63c-2.12-2.24-2.03-5.79,0.24-7.91l0,0c2.26-2.12,5.8-1.99,7.9,0.24l0,0
					c2.13,2.26,2.03,5.78-0.24,7.92l0,0c-1.07,1.01-2.44,1.51-3.81,1.51l0,0C737.13-8.87,735.64-9.46,734.54-10.63 M642.16-15.1
					c-1.21-1.27-1.14-3.27,0.14-4.48l0,0c1.27-1.19,3.27-1.14,4.48,0.12l0,0c1.18,1.27,1.13,3.27-0.14,4.47l0,0
					c-0.61,0.58-1.39,0.87-2.17,0.87l0,0C643.63-14.11,642.79-14.45,642.16-15.1 M740.55-26.62c-1.89-2-1.79-5.15,0.22-7.03l0,0
					c2-1.9,5.16-1.79,7.03,0.21l0,0c1.89,1.99,1.79,5.14-0.21,7.02l0,0c-0.96,0.91-2.19,1.36-3.42,1.36l0,0
					C742.85-25.05,741.53-25.58,740.55-26.62 M636.99-30.48c-1.46-1.58-1.42-4.04,0.17-5.52l0,0c1.57-1.49,4.05-1.4,5.54,0.16l0,0
					c1.48,1.57,1.39,4.07-0.16,5.54l0,0c-0.77,0.72-1.74,1.07-2.7,1.07l0,0C638.8-29.24,637.76-29.65,636.99-30.48 M741.81-43.87
					c-1.48-1.57-1.39-4.05,0.18-5.53l0,0c1.59-1.5,4.05-1.41,5.54,0.17l0,0c1.48,1.57,1.43,4.04-0.17,5.53l0,0
					c-0.75,0.71-1.71,1.06-2.68,1.06l0,0C743.63-42.65,742.58-43.06,741.81-43.87 M636.71-46.27c-1.87-1.99-1.78-5.15,0.22-7.03l0,0
					c2-1.9,5.15-1.8,7.03,0.2l0,0c1.88,1.99,1.79,5.14-0.21,7.05l0,0c-0.96,0.9-2.18,1.35-3.4,1.35l0,0
					C639.02-44.7,637.7-45.23,636.71-46.27 M737.74-60.26c-1.21-1.27-1.15-3.28,0.13-4.5l0,0c1.29-1.2,3.29-1.14,4.5,0.16l0,0
					c1.19,1.27,1.14,3.28-0.13,4.48l0,0c-0.62,0.57-1.4,0.85-2.18,0.86l0,0C739.21-59.26,738.37-59.59,737.74-60.26 M641.84-61.42
					c-2.12-2.23-2.05-5.77,0.21-7.91l0,0c2.27-2.11,5.81-1.99,7.91,0.24l0,0c2.12,2.24,2.01,5.8-0.23,7.9l0,0
					c-1.08,1.02-2.45,1.53-3.81,1.53l0,0C644.44-59.65,642.94-60.26,641.84-61.42 M651.35-73.91c-2.43-2.62-2.31-6.64,0.28-9.1l0,0
					c2.58-2.44,6.66-2.33,9.08,0.27l0,0c2.44,2.59,2.32,6.64-0.27,9.1l0,0c-1.25,1.17-2.83,1.75-4.41,1.75l0,0
					C654.32-71.88,652.61-72.56,651.35-73.91 M729-74.48c-0.89-0.95-0.84-2.45,0.1-3.34l0,0c0.96-0.88,2.45-0.84,3.34,0.12l0,0
					c0.9,0.93,0.86,2.44-0.1,3.32l0,0c-0.45,0.43-1.03,0.65-1.62,0.65l0,0c0,0-0.01,0-0.01,0l0,0
					C730.08-73.73,729.46-73.98,729-74.48 M665.61-83.83c-2.11-2.21-2.01-5.76,0.25-7.9l0,0c2.25-2.12,5.8-2.01,7.9,0.24l0,0
					c2.11,2.25,2.03,5.79-0.23,7.91l0,0c-1.08,1.02-2.46,1.52-3.83,1.52l0,0C668.2-82.06,666.72-82.65,665.61-83.83 M715.35-84.04
					c-1.21-1.27-1.15-3.29,0.12-4.48l0,0c1.29-1.21,3.29-1.14,4.49,0.14l0,0c1.2,1.26,1.15,3.26-0.13,4.47l0,0
					c-0.61,0.58-1.4,0.87-2.18,0.87l0,0C716.81-83.05,715.97-83.38,715.35-84.04 M681.93-88.85c-1.88-1.99-1.79-5.16,0.22-7.02l0,0
					c2.02-1.9,5.15-1.81,7.02,0.19l0,0c1.89,1.99,1.81,5.15-0.19,7.03l0,0c-0.96,0.91-2.18,1.36-3.41,1.36l0,0
					C684.23-87.3,682.91-87.82,681.93-88.85 M699.23-89.1c-1.47-1.56-1.4-4.04,0.17-5.53l0,0c1.58-1.49,4.06-1.39,5.54,0.17l0,0
					c1.48,1.56,1.42,4.05-0.16,5.53l0,0c-0.76,0.71-1.73,1.06-2.68,1.06l0,0C701.05-87.87,700-88.28,699.23-89.1"/>
			</g>
		</g>
	</g>
</g>
<g id="g2944" transform="matrix(1.25,0,0,-1.25,-735.35,72.15625)">
	<g id="g2946">
		<g id="g2952">
			<g id="g2954">
				
					<linearGradient id="path2964_1_" gradientUnits="userSpaceOnUse" x1="758.6536" y1="-379.5683" x2="759.6536" y2="-379.5683" gradientTransform="matrix(-72.0614 167.0623 167.0623 72.0614 118802.2656 -99496.9062)">
					<stop  offset="0" style="stop-color:#F79210"/>
					<stop  offset="0.5" style="stop-color:#F35C19"/>
					<stop  offset="1" style="stop-color:#F79210"/>
				</linearGradient>
				<path id="path2964" fill="url(#path2964_1_)" d="M699.5,33.55c-2.34-0.47-3.85-2.71-3.38-5.06l0,0
					c0.47-2.32,2.73-3.83,5.06-3.37l0,0c2.33,0.47,3.84,2.73,3.37,5.06l0,0c-0.41,2.05-2.2,3.46-4.21,3.46l0,0
					C700.08,33.63,699.79,33.6,699.5,33.55 M681.67,32.37c-1.83-0.28-3.1-1.97-2.84-3.81l0,0c0.28-1.84,1.99-3.1,3.82-2.83l0,0
					c1.83,0.27,3.11,1.97,2.84,3.81l0,0c-0.24,1.67-1.68,2.87-3.33,2.87l0,0C682,32.41,681.84,32.4,681.67,32.37 M716.68,29.91
					c-2.78-0.71-4.48-3.54-3.76-6.34l0,0c0.72-2.78,3.56-4.48,6.34-3.76l0,0c2.78,0.71,4.47,3.56,3.76,6.33l0,0
					c-0.61,2.37-2.72,3.92-5.05,3.92l0,0C717.56,30.07,717.12,30.02,716.68,29.91 M663.43,26.96c-1.59-0.68-2.33-2.51-1.64-4.11l0,0
					c0.68-1.58,2.53-2.31,4.11-1.63l0,0c1.58,0.68,2.33,2.53,1.64,4.1l0,0c-0.51,1.19-1.66,1.89-2.87,1.89l0,0
					C664.27,27.22,663.84,27.13,663.43,26.96 M731.91,22.2c-3.42-1.07-5.35-4.7-4.27-8.14l0,0c1.06-3.42,4.72-5.33,8.14-4.26l0,0
					c3.43,1.07,5.33,4.72,4.26,8.14l0,0c-0.87,2.78-3.42,4.56-6.18,4.56l0,0C733.22,22.5,732.56,22.4,731.91,22.2 M646.97,17.41
					c-1.45-1.15-1.7-3.26-0.55-4.72l0,0c1.16-1.46,3.28-1.7,4.72-0.55l0,0c1.46,1.16,1.72,3.26,0.56,4.72l0,0
					c-0.67,0.84-1.64,1.27-2.63,1.27l0,0C648.33,18.13,647.59,17.89,646.97,17.41 M744.42,10.07c-3.72-1.38-5.62-5.48-4.24-9.21l0,0
					c1.38-3.72,5.5-5.61,9.2-4.24l0,0c3.71,1.37,5.61,5.5,4.24,9.21l0,0c-1.08,2.9-3.81,4.68-6.71,4.68l0,0
					C746.08,10.52,745.24,10.37,744.42,10.07 M633.89,5.25c-1.94-1.38-2.41-4.04-1.03-6l0,0c1.38-1.93,4.06-2.39,5.99-1.02l0,0
					c1.94,1.38,2.4,4.07,1.03,5.99l0,0c-0.84,1.19-2.17,1.82-3.51,1.82l0,0C635.52,6.04,634.65,5.79,633.89,5.25 M753.13-5.12
					c-3.96-1.71-5.79-6.27-4.08-10.24l0,0c1.7-3.95,6.29-5.78,10.24-4.08l0,0c3.95,1.71,5.78,6.3,4.07,10.25l0,0
					c-1.27,2.95-4.14,4.71-7.15,4.71l0,0C755.18-4.48,754.13-4.69,753.13-5.12 M624.73-9.73c-2.42-1.54-3.16-4.75-1.61-7.19l0,0
					c1.53-2.43,4.76-3.16,7.18-1.63l0,0c2.44,1.54,3.16,4.77,1.62,7.21l0,0c-0.99,1.57-2.67,2.42-4.4,2.42l0,0
					C626.57-8.92,625.6-9.19,624.73-9.73 M758-23.35c-3.54-1.75-5-6.05-3.24-9.59l0,0c1.77-3.57,6.06-5,9.6-3.24l0,0
					c3.54,1.75,5,6.03,3.24,9.59l0,0c-1.25,2.52-3.8,3.98-6.44,3.98l0,0C760.1-22.61,759.02-22.85,758-23.35 M619.89-26.12
					c-3.13-1.75-4.24-5.7-2.48-8.84l0,0c1.75-3.12,5.71-4.24,8.84-2.48l0,0c3.13,1.75,4.24,5.72,2.48,8.85l0,0
					c-1.19,2.12-3.39,3.31-5.66,3.31l0,0C622-25.28,620.9-25.54,619.89-26.12 M758.24-42.29c-3.12-1.75-4.24-5.72-2.48-8.85l0,0
					c1.76-3.14,5.72-4.23,8.84-2.47l0,0c3.13,1.76,4.25,5.7,2.48,8.84l0,0c-1.19,2.12-3.39,3.32-5.66,3.32l0,0
					C760.35-41.45,759.25-41.73,758.24-42.29 M620.14-43.54c-3.53-1.74-5.01-6.03-3.24-9.59l0,0c1.76-3.55,6.07-4.99,9.61-3.24l0,0
					c3.54,1.75,5,6.05,3.24,9.59l0,0c-1.26,2.54-3.77,3.99-6.4,3.99l0,0C622.26-42.79,621.16-43.03,620.14-43.54 M625.22-60.29
					c-3.95-1.7-5.79-6.27-4.08-10.25l0,0c1.7-3.96,6.31-5.77,10.25-4.07l0,0c3.95,1.71,5.77,6.3,4.06,10.25l0,0
					c-1.27,2.95-4.14,4.7-7.15,4.7l0,0C627.27-59.65,626.22-59.85,625.22-60.29 M754.2-61.18c-2.43-1.55-3.16-4.76-1.62-7.19l0,0
					c1.54-2.44,4.76-3.15,7.19-1.62l0,0c2.42,1.54,3.16,4.74,1.61,7.19l0,0c-0.99,1.57-2.69,2.42-4.41,2.42l0,0
					C756.02-60.37,755.06-60.63,754.2-61.18 M635.11-76.35c-3.7-1.38-5.61-5.5-4.23-9.2l0,0c1.38-3.74,5.51-5.61,9.2-4.23l0,0
					c3.72,1.38,5.62,5.47,4.24,9.21l0,0c-1.07,2.88-3.81,4.67-6.72,4.67l0,0C636.77-75.9,635.93-76.05,635.11-76.35 M745.64-77.96
					c-1.94-1.38-2.4-4.06-1.03-6l0,0c1.39-1.95,4.06-2.4,6.01-1.03l0,0c1.93,1.37,2.39,4.05,1.01,6.01l0,0
					c-0.84,1.18-2.17,1.81-3.52,1.81l0,0C747.26-77.17,746.39-77.42,745.64-77.96 M648.72-89.53c-3.42-1.06-5.33-4.7-4.25-8.13l0,0
					c1.07-3.45,4.7-5.34,8.12-4.26l0,0c3.43,1.06,5.35,4.69,4.28,8.12l0,0c-0.87,2.78-3.44,4.57-6.21,4.57l0,0
					C650.01-89.23,649.36-89.33,648.72-89.53 M733.36-91.86c-1.45-1.16-1.7-3.27-0.55-4.72l0,0c1.15-1.47,3.27-1.69,4.72-0.55l0,0
					c1.46,1.16,1.71,3.26,0.55,4.73l0,0c-0.66,0.84-1.64,1.27-2.63,1.27l0,0C734.72-91.14,733.98-91.37,733.36-91.86 M665.24-99.55
					c-2.78-0.71-4.46-3.54-3.75-6.33l0,0c0.71-2.81,3.54-4.47,6.33-3.76l0,0c2.79,0.72,4.48,3.53,3.77,6.33l0,0
					c-0.6,2.36-2.72,3.92-5.05,3.92l0,0C666.11-99.39,665.68-99.43,665.24-99.55 M718.59-100.95c-1.58-0.67-2.32-2.52-1.63-4.1l0,0
					c0.69-1.6,2.53-2.32,4.11-1.64l0,0c1.59,0.68,2.33,2.53,1.64,4.12l0,0c-0.51,1.18-1.67,1.89-2.88,1.89l0,0
					C719.42-100.69,719.01-100.77,718.59-100.95 M683.31-104.84c-2.33-0.47-3.84-2.74-3.37-5.06l0,0c0.47-2.34,2.74-3.85,5.07-3.38
					l0,0c2.32,0.48,3.84,2.73,3.37,5.08l0,0c-0.41,2.04-2.21,3.45-4.22,3.45l0,0C683.88-104.75,683.6-104.78,683.31-104.84
					 M701.85-105.45c-1.83-0.27-3.1-1.98-2.83-3.82l0,0c0.27-1.84,1.98-3.1,3.81-2.83l0,0c1.84,0.27,3.12,1.97,2.84,3.81l0,0
					c-0.24,1.68-1.69,2.88-3.34,2.88l0,0C702.18-105.41,702.01-105.42,701.85-105.45"/>
			</g>
		</g>
	</g>
</g>
<g id="g2966" transform="matrix(1.25,0,0,-1.25,-735.35,72.15625)">
	<g id="g2968">
		<g id="g2974">
			<g id="g2976">
				
					<linearGradient id="path2986_1_" gradientUnits="userSpaceOnUse" x1="758.4603" y1="-378.9217" x2="759.4603" y2="-378.9217" gradientTransform="matrix(0 233.0174 233.0174 0 88987.5938 -176867.5)">
					<stop  offset="0" style="stop-color:#F79210"/>
					<stop  offset="0.5" style="stop-color:#F35C19"/>
					<stop  offset="1" style="stop-color:#F79210"/>
				</linearGradient>
				<path id="path2986" fill="url(#path2986_1_)" d="M688.24,49.34c0-2.22,1.8-4.01,4-4.01l0,0c2.22,0,4.02,1.79,4.02,4.01l0,0
					c0,2.23-1.8,4-4.02,4l0,0C690.04,53.34,688.24,51.57,688.24,49.34 M711.18,47.42c-0.62-2.31,0.75-4.66,3.04-5.27l0,0
					c2.3-0.62,4.67,0.74,5.28,3.04l0,0c0.62,2.3-0.76,4.65-3.06,5.27l0,0c-0.37,0.1-0.75,0.15-1.12,0.15l0,0
					C713.43,50.6,711.7,49.34,711.18,47.42 M668.05,50.45c-2.29-0.61-3.67-2.96-3.05-5.26l0,0c0.61-2.3,2.99-3.66,5.27-3.04l0,0
					c2.3,0.61,3.67,2.97,3.06,5.28l0,0c-0.52,1.92-2.25,3.18-4.15,3.18l0,0C668.81,50.6,668.43,50.56,668.05,50.45 M731.47,38.56
					c-0.63-2.98,1.27-5.91,4.24-6.54l0,0c2.98-0.63,5.9,1.27,6.54,4.23l0,0c0.64,3-1.27,5.91-4.24,6.53l0,0
					c-0.39,0.08-0.78,0.12-1.17,0.12l0,0C734.3,42.91,732.02,41.15,731.47,38.56 M646.49,42.79c-2.97-0.63-4.88-3.54-4.25-6.54l0,0
					c0.63-2.97,3.56-4.87,6.53-4.23l0,0c2.98,0.63,4.88,3.56,4.25,6.54l0,0c-0.55,2.59-2.83,4.35-5.37,4.35l0,0
					C647.27,42.91,646.88,42.88,646.49,42.79 M748.74,24.26c-0.58-3.64,1.91-7.07,5.55-7.65l0,0c3.62-0.58,7.06,1.92,7.63,5.56l0,0
					c0.58,3.66-1.92,7.05-5.54,7.64l0,0c-0.36,0.05-0.71,0.08-1.06,0.08l0,0C752.09,29.89,749.26,27.56,748.74,24.26 M628.13,29.81
					c-3.63-0.58-6.12-3.97-5.54-7.63l0,0c0.57-3.64,3.99-6.13,7.63-5.56l0,0c3.65,0.58,6.14,4.01,5.56,7.65l0,0
					c-0.52,3.3-3.36,5.63-6.58,5.63l0,0C628.84,29.89,628.49,29.87,628.13,29.81 M761.22,5.61c-0.48-4.57,2.85-8.67,7.41-9.15l0,0
					c4.58-0.48,8.67,2.84,9.14,7.41l0,0c0.48,4.59-2.83,8.67-7.4,9.15l0,0c-0.3,0.03-0.59,0.04-0.88,0.04l0,0
					C765.3,13.06,761.67,9.9,761.22,5.61 M614.13,13.02c-4.58-0.48-7.89-4.56-7.4-9.15l0,0c0.48-4.57,4.56-7.89,9.14-7.41l0,0
					c4.57,0.48,7.89,4.58,7.41,9.15l0,0c-0.45,4.29-4.06,7.45-8.26,7.45l0,0C614.72,13.06,614.42,13.06,614.13,13.02 M769.28-16.28
					c-0.26-5.06,3.62-9.38,8.67-9.65l0,0c5.07-0.26,9.4,3.62,9.66,8.69l0,0c0.27,5.08-3.64,9.37-8.68,9.64l0,0
					c-0.17,0.01-0.34,0.01-0.5,0.01l0,0C773.58-7.59,769.54-11.36,769.28-16.28 M605.57-7.61c-5.03-0.26-8.94-4.55-8.68-9.64l0,0
					c0.27-5.06,4.6-8.95,9.66-8.69l0,0c5.06,0.27,8.94,4.59,8.68,9.65l0,0c-0.26,4.92-4.3,8.69-9.16,8.69l0,0
					C605.91-7.59,605.73-7.6,605.57-7.61 M771.47-39.85c0-5.52,4.46-10,9.97-10l0,0c5.52,0,9.99,4.48,9.99,9.99l0,0
					c0,5.55-4.47,9.98-9.97,9.98l0,0C775.93-29.88,771.47-34.31,771.47-39.85 M593.06-39.86c0-5.51,4.49-9.99,10-9.99l0,0
					c5.5,0,9.96,4.48,9.96,10l0,0c0,5.54-4.46,9.96-9.96,9.96l0,0C597.55-29.88,593.06-34.31,593.06-39.86 M777.94-53.79
					c-5.04-0.26-8.93-4.58-8.67-9.64l0,0c0.26-5.09,4.58-8.94,9.65-8.68l0,0c5.04,0.26,8.94,4.54,8.68,9.64l0,0
					c-0.25,4.89-4.32,8.69-9.17,8.69l0,0C778.26-53.78,778.1-53.78,777.94-53.79 M596.9-62.47c-0.26-5.1,3.64-9.38,8.68-9.64l0,0
					c5.07-0.26,9.39,3.58,9.66,8.68l0,0c0.27,5.06-3.62,9.38-8.68,9.64l0,0c-0.16,0.01-0.32,0.01-0.48,0.01l0,0
					C601.22-53.78,597.15-57.58,596.9-62.47 M768.63-76.19c-4.56-0.48-7.89-4.58-7.41-9.15l0,0c0.48-4.59,4.59-7.88,9.15-7.4l0,0
					c4.57,0.48,7.89,4.55,7.4,9.14l0,0c-0.45,4.28-4.05,7.45-8.26,7.45l0,0C769.22-76.14,768.92-76.15,768.63-76.19 M606.73-83.59
					c-0.48-4.59,2.83-8.66,7.4-9.14l0,0c4.57-0.48,8.67,2.81,9.14,7.4l0,0c0.48,4.57-2.84,8.67-7.41,9.15l0,0
					c-0.3,0.04-0.59,0.05-0.88,0.05l0,0C610.78-76.14,607.18-79.32,606.73-83.59 M754.29-96.35c-3.64-0.58-6.14-3.99-5.55-7.64l0,0
					c0.58-3.66,4-6.12,7.64-5.55l0,0c3.63,0.58,6.13,3.97,5.54,7.64l0,0c-0.52,3.29-3.37,5.63-6.59,5.63l0,0
					C754.99-96.26,754.64-96.29,754.29-96.35 M622.59-101.89c-0.58-3.67,1.9-7.06,5.54-7.64l0,0c3.65-0.58,7.06,1.88,7.65,5.55l0,0
					c0.58,3.64-1.91,7.05-5.56,7.63l0,0c-0.35,0.06-0.71,0.08-1.05,0.08l0,0C625.94-96.27,623.11-98.61,622.59-101.89
					 M735.71-111.74c-2.98-0.63-4.88-3.56-4.24-6.54l0,0c0.63-2.99,3.56-4.88,6.54-4.25l0,0c2.97,0.63,4.88,3.55,4.24,6.55l0,0
					c-0.55,2.58-2.84,4.36-5.39,4.36l0,0C736.49-111.62,736.1-111.66,735.71-111.74 M642.25-115.98c-0.64-3,1.27-5.91,4.24-6.55l0,0
					c2.97-0.63,5.9,1.27,6.53,4.25l0,0c0.63,2.97-1.27,5.91-4.24,6.54l0,0c-0.38,0.08-0.77,0.12-1.14,0.12l0,0
					C645.09-111.62,642.8-113.4,642.25-115.98 M714.22-121.87c-2.29-0.62-3.66-2.98-3.05-5.28l0,0c0.62-2.29,2.98-3.65,5.27-3.03
					l0,0c2.3,0.61,3.68,2.96,3.06,5.27l0,0c-0.51,1.92-2.26,3.19-4.17,3.19l0,0C714.97-121.72,714.6-121.76,714.22-121.87
					 M665-124.91c-0.61-2.3,0.76-4.65,3.05-5.26l0,0c2.3-0.62,4.66,0.74,5.28,3.04l0,0c0.61,2.29-0.75,4.65-3.06,5.27l0,0
					c-0.37,0.1-0.74,0.15-1.11,0.15l0,0C667.27-121.72,665.52-122.98,665-124.91 M688.24-129.07c0-2.22,1.8-4,4-4l0,0
					c2.22,0,4.02,1.78,4.02,4.01l0,0c0,2.21-1.8,4-4.02,4l0,0C690.04-125.06,688.24-126.85,688.24-129.07"/>
			</g>
		</g>
	</g>
</g>
</svg>
